ply
format ascii 1.0
element vertex 50
property float x
property float y
property float z
element face 80
property list uchar int vertex_index
end_header
0.5773502691896258 -0.5773502691896257 0.577350269189626
-0.5773502691896258 -0.577350269189626 -0.5773502691896257
0.5773502691896258 0.5773502691896257 -0.577350269189626
-0.5773502691896258 0.577350269189626 0.5773502691896257
0.5773502691896258 -0.5773502691896251 3.5773502691896257
0.5773502691896258 0.5773502691896266 3.5773502691896257
-0.5773502691896258 0.5773502691896266 3.5773502691896257
-0.5773502691896258 -0.5773502691896251 3.5773502691896257
0.5773502691896258 -0.5773502691896253 2.4226497308103743
0.5773502691896258 0.5773502691896264 2.4226497308103743
-0.5773502691896258 -0.5773502691896253 2.4226497308103743
-0.5773502691896258 0.5773502691896264 2.4226497308103743
4 0 0
3 2.220446049250313e-16 1
3 -1 2.220446049250313e-16
3 -2.220446049250313e-16 -1
3 1 -2.220446049250313e-16
2 0 0
3.5773502691896257 -0.5773502691896251 3.5773502691896257
3 -0.9341723589627151 3.35682208977309
3 -0.9341723589627153 2.64317791022691
3.5773502691896257 -0.5773502691896253 2.4226497308103743
3.9341723589627158 -0.35682208977308927 3
3.9341723589627158 0.3568220897730906 3
3.5773502691896257 0.5773502691896266 3.5773502691896257
3.35682208977309 8.735617471528547e-16 3.9341723589627158
2.64317791022691 8.735617471528547e-16 3.9341723589627158
2.4226497308103743 -0.5773502691896251 3.5773502691896257
3 0.9341723589627167 3.35682208977309
2.4226497308103743 0.5773502691896266 3.5773502691896257
3.5773502691896257 0.5773502691896264 2.4226497308103743
3 0.9341723589627164 2.64317791022691
2.4226497308103743 -0.5773502691896253 2.4226497308103743
2.64317791022691 4.587058823973332e-16 2.0658276410372842
3.35682208977309 4.587058823973332e-16 2.0658276410372842
2.0658276410372842 0.3568220897730906 3
2.0658276410372842 -0.35682208977308927 3
2.4226497308103743 0.5773502691896264 2.4226497308103743
6 -0.8506508083520395 2.0257311121191335
6 -0.8506508083520398 0.9742688878808666
6.85065080835204 -0.5257311121191333 1.5000000000000002
6.525731112119134 5.219493300572342e-16 2.35065080835204
5.474268887880866 5.219493300572342e-16 2.35065080835204
5.14934919164796 -0.5257311121191333 1.5000000000000002
6 0.8506508083520404 2.0257311121191335
6 0.8506508083520402 0.9742688878808662
5.14934919164796 0.5257311121191339 1.4999999999999998
6.85065080835204 0.5257311121191339 1.4999999999999998
6.525731112119134 1.4418448471785972e-16 0.64934919164796
5.474268887880866 1.4418448471785972e-16 0.64934919164796
3 0 1 2
3 0 3 1
3 0 2 3
3 1 3 2
3 4 5 6
3 4 6 7
3 4 8 9
3 4 9 5
3 4 7 10
3 4 10 8
3 5 9 11
3 5 11 6
3 8 10 11
3 8 11 9
3 7 6 11
3 7 11 10
3 12 13 14
3 12 15 16
3 12 14 15
3 12 16 13
3 17 13 16
3 17 15 14
3 17 14 13
3 17 16 15
3 18 19 20
3 18 20 21
3 18 21 22
3 18 22 23
3 18 23 24
3 18 24 25
3 18 25 26
3 18 26 27
3 18 27 19
3 24 28 29
3 24 29 26
3 24 26 25
3 24 23 30
3 24 30 31
3 24 31 28
3 21 20 32
3 21 32 33
3 21 33 34
3 21 34 30
3 21 30 23
3 21 23 22
3 27 26 29
3 27 29 35
3 27 35 36
3 27 36 32
3 27 32 20
3 27 20 19
3 30 34 33
3 30 33 37
3 30 37 31
3 29 28 31
3 29 31 37
3 29 37 35
3 32 36 35
3 32 35 37
3 32 37 33
3 38 39 40
3 38 41 42
3 38 42 43
3 38 40 41
3 38 43 39
3 44 45 46
3 44 41 47
3 44 42 41
3 44 47 45
3 44 46 42
3 39 48 40
3 39 49 48
3 39 43 49
3 45 48 49
3 45 49 46
3 45 47 48
3 41 40 47
3 48 47 40
3 42 46 43
3 49 43 46
